<svg width="19" height="19" viewBox="0 0 19 19" fill="none" xmlns="http://www.w3.org/2000/svg">
<path d="M18.75 9.37548C18.7499 11.5829 17.9708 13.7195 16.5501 15.409C15.1293 17.0984 13.158 18.2324 10.9833 18.611C8.80856 18.9897 6.56997 18.5889 4.66178 17.4791C2.75359 16.3693 1.2982 14.6218 0.551956 12.5443C-0.194291 10.4668 -0.183529 8.19268 0.582344 6.12235C1.34822 4.05203 2.82008 2.31836 4.73868 1.22669C6.65729 0.135026 8.89958 -0.244617 11.0706 0.154632C13.2416 0.553881 15.2022 1.70641 16.6069 3.40923C16.7009 3.52317 16.7716 3.65453 16.8149 3.79579C16.8582 3.93705 16.8733 4.08546 16.8592 4.23254C16.8451 4.37962 16.8023 4.52249 16.733 4.65299C16.6637 4.7835 16.5694 4.89908 16.4555 4.99314C16.3415 5.0872 16.2102 5.15789 16.0689 5.20119C15.9276 5.24448 15.7792 5.25953 15.6322 5.24547C15.4851 5.23141 15.3422 5.18852 15.2117 5.11925C15.0812 5.04997 14.9656 4.95567 14.8716 4.84173C13.8348 3.58497 12.3987 2.72145 10.8026 2.39509C9.20642 2.06873 7.54662 2.29924 6.0998 3.0482C4.65298 3.79716 3.50653 5.01934 2.85151 6.51105C2.1965 8.00276 2.07248 9.67389 2.50013 11.2459C2.92779 12.818 3.88128 14.196 5.2017 15.1503C6.52212 16.1047 8.12971 16.5776 9.75656 16.4905C11.3834 16.4033 12.9312 15.7612 14.1421 14.6712C15.353 13.5813 16.1537 12.1092 16.4109 10.5005H9.375C9.07663 10.5005 8.79048 10.382 8.5795 10.171C8.36853 9.96 8.25 9.67385 8.25 9.37548C8.25 9.07711 8.36853 8.79097 8.5795 8.57999C8.79048 8.36901 9.07663 8.25048 9.375 8.25048H17.625C17.9234 8.25048 18.2095 8.36901 18.4205 8.57999C18.6315 8.79097 18.75 9.07711 18.75 9.37548Z" fill="#315822"/>
</svg>
