<svg width="165" height="40" viewBox="0 0 165 40" fill="none" xmlns="http://www.w3.org/2000/svg">
<path d="M21.8141 0V8.48921C27.3037 9.35252 31.6377 14.1007 31.6377 19.8561C31.6377 26.1871 26.4369 31.3669 20.0805 31.3669C14.013 31.3669 9.10124 26.7626 8.52339 20.8633H0C0.577857 31.5108 9.24571 40 20.0805 40C31.2043 40 40.161 31.0791 40.161 20C40.161 9.4964 32.0711 1.00719 21.8141 0Z" fill="#315822"/>
<path d="M19.5027 0H0V8.34532H19.5027V0Z" fill="#315822"/>
<path d="M15.0243 10.5036H0V18.9928H15.0243V10.5036Z" fill="#315822"/>
<path d="M62.741 12.8V27H59.461V21.18H53.801V27H50.521V12.8H53.801V18.3H59.461V12.8H62.741ZM65.3525 27V16.5H68.5525V27H65.3525ZM65.3525 15.3V12.4H68.5525V15.3H65.3525ZM74.9731 27.04C74.2797 27.04 73.6464 26.9067 73.0731 26.64C72.4997 26.36 72.0064 25.98 71.5931 25.5C71.1931 25.0067 70.8797 24.44 70.6531 23.8C70.4264 23.16 70.3131 22.4733 70.3131 21.74C70.3131 20.9667 70.4331 20.2533 70.6731 19.6C70.9131 18.9467 71.2464 18.3733 71.6731 17.88C72.1131 17.3733 72.6264 16.9867 73.2131 16.72C73.8131 16.44 74.4731 16.3 75.1931 16.3C75.9797 16.3 76.6731 16.4733 77.2731 16.82C77.8731 17.1533 78.3531 17.62 78.7131 18.22V16.5H81.4931V26.28C81.4931 27.3467 81.2331 28.2667 80.7131 29.04C80.2064 29.8133 79.4931 30.4067 78.5731 30.82C77.6664 31.2467 76.6131 31.46 75.4131 31.46C74.2931 31.46 73.3264 31.2733 72.5131 30.9C71.7131 30.54 71.0131 30.0267 70.4131 29.36L72.1331 27.62C72.5197 28.06 72.9997 28.4067 73.5731 28.66C74.1464 28.9267 74.7597 29.06 75.4131 29.06C75.9331 29.06 76.4131 28.9667 76.8531 28.78C77.2931 28.5933 77.6397 28.2933 77.8931 27.88C78.1597 27.4667 78.2931 26.9333 78.2931 26.28V25.26C77.9731 25.8333 77.5064 26.2733 76.8931 26.58C76.2931 26.8867 75.6531 27.04 74.9731 27.04ZM76.0731 24.5C76.3264 24.5 76.5597 24.4667 76.7731 24.4C76.9997 24.32 77.2064 24.22 77.3931 24.1C77.5797 23.9667 77.7531 23.8133 77.9131 23.64C78.0731 23.4533 78.1997 23.2533 78.2931 23.04V20.84C78.1597 20.4667 77.9664 20.1467 77.7131 19.88C77.4597 19.6 77.1797 19.3867 76.8731 19.24C76.5664 19.0933 76.2464 19.02 75.9131 19.02C75.5797 19.02 75.2664 19.0933 74.9731 19.24C74.6797 19.3867 74.4264 19.6 74.2131 19.88C74.0131 20.1467 73.8531 20.4467 73.7331 20.78C73.6264 21.1133 73.5731 21.46 73.5731 21.82C73.5731 22.2067 73.6331 22.56 73.7531 22.88C73.8864 23.2 74.0664 23.4867 74.2931 23.74C74.5197 23.98 74.7864 24.1667 75.0931 24.3C75.3997 24.4333 75.7264 24.5 76.0731 24.5ZM88.836 27.2C87.9427 27.2 87.1427 27.0533 86.436 26.76C85.7427 26.4667 85.156 26.0667 84.676 25.56C84.196 25.0533 83.8294 24.4733 83.576 23.82C83.336 23.1667 83.216 22.48 83.216 21.76C83.216 21.0267 83.336 20.3333 83.576 19.68C83.8294 19.0267 84.196 18.4467 84.676 17.94C85.156 17.4333 85.7427 17.0333 86.436 16.74C87.1427 16.4467 87.9427 16.3 88.836 16.3C89.7294 16.3 90.5227 16.4467 91.2161 16.74C91.9094 17.0333 92.496 17.4333 92.9761 17.94C93.4561 18.4467 93.8227 19.0267 94.0761 19.68C94.3294 20.3333 94.4561 21.0267 94.4561 21.76C94.4561 22.48 94.3294 23.1667 94.0761 23.82C93.8227 24.4733 93.4561 25.0533 92.9761 25.56C92.496 26.0667 91.9094 26.4667 91.2161 26.76C90.5227 27.0533 89.7294 27.2 88.836 27.2ZM86.496 21.76C86.496 22.3067 86.596 22.7867 86.796 23.2C87.0094 23.6133 87.2894 23.9333 87.636 24.16C87.9827 24.3867 88.3827 24.5 88.836 24.5C89.2761 24.5 89.6694 24.3867 90.0161 24.16C90.3761 23.92 90.6561 23.5933 90.8561 23.18C91.0561 22.7667 91.1561 22.2933 91.1561 21.76C91.1561 21.2133 91.0561 20.7333 90.8561 20.32C90.6561 19.9067 90.3761 19.5867 90.0161 19.36C89.6694 19.1333 89.2761 19.02 88.836 19.02C88.3827 19.02 87.9827 19.1333 87.636 19.36C87.2894 19.5867 87.0094 19.9067 86.796 20.32C86.596 20.7333 86.496 21.2133 86.496 21.76ZM100.213 27.2C99.3197 27.2 98.4464 27.0533 97.5931 26.76C96.7397 26.4667 96.0197 26.0333 95.4331 25.46L96.5331 23.44C97.1731 23.9067 97.7931 24.26 98.3931 24.5C99.0064 24.74 99.5797 24.86 100.113 24.86C100.526 24.86 100.846 24.7933 101.073 24.66C101.3 24.5267 101.413 24.32 101.413 24.04C101.413 23.84 101.346 23.6867 101.213 23.58C101.08 23.46 100.873 23.3533 100.593 23.26C100.326 23.1667 99.9931 23.0667 99.5931 22.96C98.7931 22.6933 98.1264 22.4333 97.5931 22.18C97.0597 21.9267 96.6597 21.62 96.3931 21.26C96.1264 20.8867 95.9931 20.4067 95.9931 19.82C95.9931 19.1133 96.1664 18.5 96.5131 17.98C96.8731 17.4467 97.3797 17.0333 98.0331 16.74C98.6864 16.4467 99.4664 16.3 100.373 16.3C101.093 16.3 101.793 16.4133 102.473 16.64C103.166 16.8667 103.813 17.2467 104.413 17.78L103.173 19.78C102.573 19.3667 102.04 19.0667 101.573 18.88C101.106 18.6933 100.653 18.6 100.213 18.6C99.9864 18.6 99.7797 18.6267 99.5931 18.68C99.4064 18.7333 99.2531 18.8267 99.1331 18.96C99.0264 19.08 98.9731 19.24 98.9731 19.44C98.9731 19.64 99.0264 19.8 99.1331 19.92C99.2531 20.04 99.4331 20.1467 99.6731 20.24C99.9264 20.32 100.24 20.42 100.613 20.54C101.48 20.7933 102.2 21.0533 102.773 21.32C103.346 21.5733 103.773 21.8933 104.053 22.28C104.346 22.6533 104.493 23.1533 104.493 23.78C104.493 24.8467 104.106 25.6867 103.333 26.3C102.573 26.9 101.533 27.2 100.213 27.2ZM106.784 27V12.82H109.024V20.12L115.704 12.8H118.184L112.584 19.08L118.504 27H115.964L111.164 20.5L109.024 22.72V27H106.784ZM119.059 23.94C119.059 23.2733 119.245 22.6933 119.619 22.2C120.005 21.6933 120.532 21.3067 121.199 21.04C121.865 20.76 122.639 20.62 123.519 20.62C123.985 20.62 124.459 20.6533 124.939 20.72C125.432 20.7867 125.865 20.8933 126.239 21.04V20.38C126.239 19.6467 126.019 19.0733 125.579 18.66C125.139 18.2467 124.505 18.04 123.679 18.04C123.092 18.04 122.539 18.1467 122.019 18.36C121.499 18.56 120.945 18.8467 120.359 19.22L119.619 17.74C120.312 17.2733 121.005 16.9267 121.699 16.7C122.405 16.4733 123.145 16.36 123.919 16.36C125.319 16.36 126.419 16.7333 127.219 17.48C128.032 18.2133 128.439 19.26 128.439 20.62V24.52C128.439 24.7733 128.479 24.9533 128.559 25.06C128.652 25.1667 128.805 25.2267 129.019 25.24V27C128.819 27.04 128.639 27.0667 128.479 27.08C128.319 27.0933 128.185 27.1 128.079 27.1C127.612 27.1 127.259 26.9867 127.019 26.76C126.779 26.5333 126.639 26.2667 126.599 25.96L126.539 25.36C126.085 25.9467 125.505 26.4 124.799 26.72C124.092 27.04 123.379 27.2 122.659 27.2C121.965 27.2 121.345 27.06 120.799 26.78C120.252 26.4867 119.825 26.0933 119.519 25.6C119.212 25.1067 119.059 24.5533 119.059 23.94ZM125.719 24.58C125.879 24.4067 126.005 24.2333 126.099 24.06C126.192 23.8867 126.239 23.7333 126.239 23.6V22.4C125.865 22.2533 125.472 22.1467 125.059 22.08C124.645 22 124.239 21.96 123.839 21.96C123.039 21.96 122.385 22.12 121.879 22.44C121.385 22.76 121.139 23.2 121.139 23.76C121.139 24.0667 121.219 24.36 121.379 24.64C121.552 24.92 121.792 25.1467 122.099 25.32C122.419 25.4933 122.812 25.58 123.279 25.58C123.759 25.58 124.219 25.4867 124.659 25.3C125.099 25.1133 125.452 24.8733 125.719 24.58ZM131.247 29.46C131.447 29.4867 131.64 29.5133 131.827 29.54C132.027 29.58 132.187 29.6 132.307 29.6C132.533 29.6 132.727 29.5267 132.887 29.38C133.06 29.2467 133.233 28.9933 133.407 28.62C133.58 28.2467 133.793 27.7067 134.047 27L129.747 16.54H132.047L135.247 24.76L138.087 16.54H140.207L135.467 29.42C135.32 29.8067 135.107 30.16 134.827 30.48C134.547 30.8133 134.2 31.0733 133.787 31.26C133.373 31.4467 132.887 31.54 132.327 31.54C132.167 31.54 132 31.5267 131.827 31.5C131.653 31.4733 131.46 31.4333 131.247 31.38V29.46ZM140.941 23.94C140.941 23.2733 141.127 22.6933 141.501 22.2C141.887 21.6933 142.414 21.3067 143.081 21.04C143.747 20.76 144.521 20.62 145.401 20.62C145.867 20.62 146.341 20.6533 146.821 20.72C147.314 20.7867 147.747 20.8933 148.121 21.04V20.38C148.121 19.6467 147.901 19.0733 147.461 18.66C147.021 18.2467 146.387 18.04 145.561 18.04C144.974 18.04 144.421 18.1467 143.901 18.36C143.381 18.56 142.827 18.8467 142.241 19.22L141.501 17.74C142.194 17.2733 142.887 16.9267 143.581 16.7C144.287 16.4733 145.027 16.36 145.801 16.36C147.201 16.36 148.301 16.7333 149.101 17.48C149.914 18.2133 150.321 19.26 150.321 20.62V24.52C150.321 24.7733 150.361 24.9533 150.441 25.06C150.534 25.1667 150.687 25.2267 150.901 25.24V27C150.701 27.04 150.521 27.0667 150.361 27.08C150.201 27.0933 150.067 27.1 149.961 27.1C149.494 27.1 149.141 26.9867 148.901 26.76C148.661 26.5333 148.521 26.2667 148.481 25.96L148.421 25.36C147.967 25.9467 147.387 26.4 146.681 26.72C145.974 27.04 145.261 27.2 144.541 27.2C143.847 27.2 143.227 27.06 142.681 26.78C142.134 26.4867 141.707 26.0933 141.401 25.6C141.094 25.1067 140.941 24.5533 140.941 23.94ZM147.601 24.58C147.761 24.4067 147.887 24.2333 147.981 24.06C148.074 23.8867 148.121 23.7333 148.121 23.6V22.4C147.747 22.2533 147.354 22.1467 146.941 22.08C146.527 22 146.121 21.96 145.721 21.96C144.921 21.96 144.267 22.12 143.761 22.44C143.267 22.76 143.021 23.2 143.021 23.76C143.021 24.0667 143.101 24.36 143.261 24.64C143.434 24.92 143.674 25.1467 143.981 25.32C144.301 25.4933 144.694 25.58 145.161 25.58C145.641 25.58 146.101 25.4867 146.541 25.3C146.981 25.1133 147.334 24.8733 147.601 24.58ZM162.52 27H160.32V21.14C160.32 20.1667 160.16 19.4533 159.84 19C159.533 18.5467 159.073 18.32 158.46 18.32C158.033 18.32 157.606 18.4267 157.18 18.64C156.766 18.8533 156.393 19.1467 156.06 19.52C155.726 19.88 155.486 20.3 155.34 20.78V27H153.14V16.54H155.14V18.64C155.406 18.1733 155.753 17.7733 156.18 17.44C156.62 17.0933 157.113 16.8267 157.66 16.64C158.206 16.4533 158.786 16.36 159.4 16.36C160.026 16.36 160.54 16.4733 160.94 16.7C161.353 16.9267 161.673 17.24 161.9 17.64C162.14 18.0267 162.3 18.48 162.38 19C162.473 19.5067 162.52 20.0467 162.52 20.62V27Z" fill="black"/>
</svg>
